<?xml version="1.0" standalone="no"?>
<!DOCTYPE svg PUBLIC "-//W3C//DTD SVG 20010904//EN"
 "http://www.w3.org/TR/2001/REC-SVG-20010904/DTD/svg10.dtd">
<svg version="1.0" xmlns="http://www.w3.org/2000/svg"
 width="2000.000000pt" height="2000.000000pt" viewBox="0 0 2000.000000 2000.000000"
 preserveAspectRatio="xMidYMid meet">
<metadata>
Created by potrace 1.11, written by Peter Selinger 2001-2013
</metadata>
<g transform="translate(0.000000,2000.000000) scale(0.100000,-0.100000)"
fill="#000000" stroke="none">
<path d="M5565 18739 c-1676 -107 -3203 -950 -4261 -2352 -678 -898 -1114
-1994 -1253 -3147 -38 -313 -46 -450 -45 -825 0 -444 19 -691 85 -1095 110
-676 313 -1301 624 -1915 282 -558 639 -1068 1034 -1478 300 -311 1819 -1533
7918 -6374 l333 -264 507 402 c4776 3789 6963 5543 7538 6045 201 175 335 318
537 570 717 896 1180 1981 1348 3154 51 360 64 556 64 965 0 464 -22 726 -95
1155 -111 650 -312 1257 -614 1855 -413 818 -975 1512 -1680 2074 -1517 1211
-3515 1561 -5335 936 -792 -272 -1527 -728 -2157 -1339 l-113 -109 -125 121
c-1177 1138 -2728 1722 -4310 1621z m8915 -1068 c988 -117 1872 -501 2640
-1150 162 -137 480 -454 607 -606 731 -877 1147 -1884 1265 -3060 20 -205 17
-867 -5 -1080 -21 -201 -75 -524 -118 -715 -179 -785 -551 -1557 -1048 -2175
-143 -178 -258 -305 -360 -399 -349 -320 -1911 -1578 -5905 -4754 -846 -673
-1544 -1226 -1550 -1228 -12 -5 -87 54 -1781 1400 -3570 2837 -5396 4308
-5710 4599 l-70 65 35 39 35 38 -38 -35 -39 -35 -34 40 c-226 259 -350 419
-499 645 -146 221 -219 347 -330 569 -333 666 -524 1376 -576 2136 -15 219 -6
758 16 955 135 1218 607 2284 1392 3145 778 853 1852 1404 3028 1554 1269 162
2568 -176 3595 -937 204 -151 314 -247 580 -506 97 -94 224 -215 283 -270
l107 -98 127 118 c70 66 220 209 333 319 236 231 371 348 555 485 264 197 482
330 780 477 503 248 1069 409 1645 467 229 24 239 24 565 21 223 -3 345 -9
475 -24z"/>
<path d="M13685 16764 c-22 -2 -92 -9 -155 -15 -897 -84 -1787 -512 -2410
-1159 -106 -110 -1108 -1050 -1119 -1050 -11 0 -1000 924 -1045 976 -92 108
-401 369 -586 496 -829 571 -1850 816 -2850 682 -883 -118 -1717 -530 -2323
-1148 -586 -597 -986 -1343 -1171 -2184 -76 -343 -106 -634 -106 -1016 0 -442
39 -761 141 -1170 147 -588 406 -1133 768 -1616 225 -301 311 -383 951 -906
886 -724 3353 -2697 5917 -4732 161 -128 297 -232 302 -232 17 0 4238 3363
5461 4350 1109 895 1368 1114 1501 1266 612 698 975 1531 1096 2514 23 184 26
831 5 1005 -25 209 -53 381 -88 537 -268 1214 -989 2235 -2014 2850 -470 283
-1007 466 -1560 533 -127 16 -618 29 -715 19z"/>
<path d="M2589 8713 c-13 -16 -12 -17 4 -4 9 7 17 15 17 17 0 8 -8 3 -21 -13z"/>
</g>
</svg>
